<?xml version="1.0" standalone="no"?>
<!DOCTYPE svg PUBLIC "-//W3C//DTD SVG 20010904//EN"
 "http://www.w3.org/TR/2001/REC-SVG-20010904/DTD/svg10.dtd">
<svg version="1.0" xmlns="http://www.w3.org/2000/svg"
 width="648.000000pt" height="130.000000pt" viewBox="0 0 648.000000 130.000000"
 preserveAspectRatio="xMidYMid meet">

<g transform="translate(0.000000,130.000000) scale(0.100000,-0.100000)"
fill="#000000" stroke="none">
<path d="M395 955 c-49 -36 -91 -65 -94 -66 -3 0 -46 -2 -96 -3 -49 0 -96 -5
-103 -9 -17 -11 -18 -527 0 -545 8 -8 58 -12 160 -12 l148 0 0 -30 c0 -27 -3
-30 -29 -30 -36 0 -63 -25 -59 -53 3 -20 9 -21 168 -22 91 0 173 1 183 3 23 6
22 49 -2 62 -11 5 -31 10 -45 10 -22 0 -26 4 -26 30 l0 30 149 0 c123 0 152 3
165 16 14 13 16 51 16 263 0 191 -3 251 -13 266 -12 15 -29 18 -108 19 l-94 1
-92 68 c-51 37 -103 67 -115 67 -13 0 -64 -29 -113 -65z m238 -35 c97 -73 121
-98 100 -101 -39 -7 -53 -4 -58 10 -5 14 -60 57 -145 113 -26 17 -27 17 -96
-33 -38 -27 -79 -61 -90 -76 -18 -20 -27 -24 -49 -19 -14 4 -25 11 -23 17 7
20 213 168 234 169 11 0 69 -36 127 -80z m-40 -44 c62 -46 67 -53 67 -87 0
-34 -3 -39 -35 -49 -44 -15 -85 -63 -85 -101 l0 -29 -75 0 c-68 0 -91 9 -65
25 19 12 11 63 -14 83 -32 25 -42 83 -18 111 30 36 136 110 148 103 6 -4 41
-29 77 -56z m-335 -22 c-10 -10 -35 -17 -67 -17 l-51 -2 0 -217 0 -218 370 0
370 0 0 214 c0 237 2 230 -65 222 -32 -4 -65 9 -65 24 0 12 130 13 148 2 9 -7
12 -66 10 -263 l-3 -254 -396 -3 -397 -2 -6 22 c-12 45 -7 483 6 496 7 7 42
12 87 12 69 0 74 -1 59 -16z m6 -49 c10 -8 23 -12 28 -9 4 3 17 2 28 -1 30
-10 25 -48 -10 -73 -31 -23 -41 -67 -20 -88 8 -8 -2 -23 -30 -51 -45 -46 -53
-82 -17 -85 12 -1 66 -2 120 -3 109 -2 120 5 96 53 -7 15 -15 30 -17 35 -2 4
19 7 46 7 46 0 50 -2 62 -31 18 -43 64 -69 122 -69 141 0 170 198 36 249 -36
14 -41 59 -5 56 12 -2 32 4 44 11 12 8 43 14 68 14 l45 0 0 -200 0 -199 -32
-6 c-18 -3 -177 -4 -353 -2 l-320 2 -3 190 c-1 104 0 195 2 202 7 18 86 16
110 -2z m477 -111 c55 -52 46 -126 -19 -170 -56 -38 -131 -13 -159 53 -12 31
-13 41 -1 72 30 79 120 102 179 45z m-367 10 c9 -8 16 -24 16 -34 0 -22 -25
-50 -45 -50 -20 0 -45 28 -45 50 0 22 25 50 45 50 7 0 21 -7 29 -16z m48 -134
c16 -17 28 -35 26 -41 -2 -6 -44 -11 -102 -12 -113 -2 -125 6 -78 53 25 25 39
30 77 30 38 0 52 -5 77 -30z m158 -280 l0 -30 -75 0 -75 0 0 30 0 30 75 0 75
0 0 -30z m88 -72 c3 -17 -10 -18 -162 -18 -91 0 -166 4 -166 8 0 27 29 32 175
30 133 -3 150 -5 153 -20z"/>
<path d="M592 637 l-22 -23 25 -24 c30 -28 46 -19 19 11 -17 19 -18 21 -1 30
18 10 23 29 9 29 -5 0 -18 -10 -30 -23z"/>
<path d="M667 653 c-3 -4 -8 -26 -12 -47 -6 -27 -4 -37 3 -32 12 7 28 74 19
82 -3 3 -7 2 -10 -3z"/>
<path d="M700 651 c0 -5 7 -11 15 -15 20 -7 19 -26 -2 -42 -10 -7 -14 -16 -10
-20 4 -4 20 4 35 19 l27 28 -25 19 c-27 21 -40 25 -40 11z"/>
<path d="M1902 919 c-64 -32 -96 -85 -100 -169 -3 -53 0 -75 17 -107 50 -99
160 -138 259 -93 45 20 62 44 43 63 -8 8 -21 5 -50 -11 -104 -59 -221 11 -221
131 0 126 105 194 221 142 71 -33 78 14 8 51 -42 21 -126 18 -177 -7z"/>
<path d="M2335 923 c-54 -28 -85 -66 -101 -121 -39 -133 35 -250 169 -268 88
-12 173 33 208 111 21 45 25 129 8 172 -12 34 -64 90 -101 109 -36 19 -145 17
-183 -3z m193 -66 c40 -37 55 -75 50 -132 -5 -61 -33 -106 -82 -129 -72 -34
-149 -12 -200 57 -41 56 -19 175 39 213 57 37 148 33 193 -9z"/>
<path d="M2752 928 c-13 -13 -18 -341 -6 -372 9 -25 162 -22 212 3 68 35 102
95 102 183 0 94 -50 163 -136 187 -52 15 -157 14 -172 -1z m187 -56 c51 -27
73 -74 68 -145 -6 -93 -51 -136 -154 -145 l-53 -4 0 156 0 156 53 0 c32 0 66
-7 86 -18z"/>
<path d="M3181 921 c-12 -21 -15 -319 -5 -358 6 -22 10 -23 145 -23 132 0 139
1 139 20 0 19 -7 20 -115 20 l-115 0 0 70 0 70 85 0 c78 0 85 2 85 20 0 18 -7
20 -85 20 l-85 0 0 65 0 64 113 3 c104 3 112 4 112 23 0 19 -8 20 -132 23
-122 2 -133 1 -142 -17z"/>
<path d="M3795 928 c-3 -8 -4 -97 -3 -198 3 -183 3 -185 25 -188 22 -3 22 -1
25 132 l3 135 64 -125 c36 -69 68 -127 73 -130 18 -11 40 22 96 140 l57 120 5
-134 c5 -131 6 -135 28 -138 l22 -3 -2 198 c-4 258 -7 259 -113 43 l-79 -161
-81 158 c-76 151 -106 188 -120 151z"/>
<path d="M4431 923 c-31 -61 -151 -365 -146 -373 14 -23 42 -8 61 33 l19 42
91 3 91 3 17 -46 c17 -44 45 -60 61 -35 6 10 -55 167 -126 328 -29 63 -50 77
-68 45z m78 -200 l21 -53 -75 0 -75 0 16 38 c9 20 25 61 37 91 l21 55 17 -40
c10 -21 27 -63 38 -91z"/>
<path d="M4758 924 c-34 -18 -48 -43 -48 -88 0 -52 38 -91 103 -106 82 -18
105 -30 114 -58 13 -39 5 -60 -27 -77 -52 -27 -138 -10 -153 30 -7 17 -42 20
-52 5 -12 -19 26 -61 72 -82 85 -37 177 -12 210 57 14 29 14 41 4 75 -14 48
-53 76 -121 86 -73 11 -100 29 -100 70 0 68 118 79 173 16 11 -11 25 -18 33
-15 25 9 15 41 -23 72 -33 27 -45 31 -98 31 -33 -1 -72 -7 -87 -16z"/>
<path d="M5034 925 c-11 -26 7 -35 72 -35 l64 0 0 -176 0 -175 23 3 c22 3 22
5 25 176 l2 172 64 0 c64 0 79 8 68 38 -7 19 -311 17 -318 -3z"/>
<path d="M5446 924 c-9 -24 -7 -357 2 -372 7 -9 42 -12 143 -10 111 3 134 6
134 18 0 12 -20 16 -112 18 l-113 3 0 69 0 70 85 0 c78 0 85 2 85 20 0 18 -7
20 -85 20 l-85 0 0 65 0 64 113 3 c104 3 112 4 112 23 0 19 -8 20 -136 23
-118 2 -137 0 -143 -14z"/>
<path d="M5834 927 c-2 -7 -3 -96 -2 -197 3 -183 3 -185 26 -188 21 -3 22 0
22 72 l0 76 43 0 c42 -1 42 -1 86 -75 43 -72 70 -92 86 -65 4 6 -13 43 -36 82
-37 60 -41 72 -28 82 77 58 61 175 -27 212 -43 18 -163 19 -170 1z m171 -62
c55 -54 15 -125 -70 -125 -49 0 -55 10 -55 98 l0 52 50 0 c41 0 56 -5 75 -25z"/>
<path d="M3534 685 c-11 -27 7 -35 75 -35 68 0 94 11 84 36 -8 20 -151 20
-159 -1z"/>
<path d="M1783 285 c0 -38 2 -53 4 -32 2 20 2 52 0 70 -2 17 -4 1 -4 -38z"/>
<path d="M1920 326 c0 -19 -4 -22 -25 -18 -31 5 -55 -13 -55 -43 0 -31 20 -45
63 -43 l37 1 0 64 c0 35 -4 63 -10 63 -5 0 -10 -11 -10 -24z m-2 -55 c6 -40
-39 -56 -58 -20 -9 15 -8 24 1 35 18 22 53 13 57 -15z"/>
<path d="M3643 285 c0 -38 2 -53 4 -32 2 20 2 52 0 70 -2 17 -4 1 -4 -38z"/>
<path d="M4240 287 l0 -64 37 -1 c43 -2 63 12 63 43 0 30 -24 48 -55 43 -21
-4 -25 -1 -25 18 0 13 -4 24 -10 24 -6 0 -10 -28 -10 -63z m79 -6 c15 -27 -9
-56 -37 -47 -21 7 -31 44 -15 59 13 13 42 7 52 -12z"/>
<path d="M4588 339 c-30 -17 -22 -47 18 -64 45 -19 40 -40 -9 -39 -20 1 -34
-3 -31 -7 8 -14 70 -10 83 5 17 20 4 42 -32 53 -43 12 -41 37 3 43 27 4 31 7
17 13 -24 9 -28 9 -49 -4z"/>
<path d="M4843 285 c0 -38 2 -53 4 -32 2 20 2 52 0 70 -2 17 -4 1 -4 -38z"/>
<path d="M1413 280 l-1 -60 38 0 c21 0 45 3 54 6 16 6 22 35 9 48 -4 4 -7 19
-8 34 0 25 -4 27 -45 30 l-46 3 -1 -61z m82 30 c0 -10 -12 -16 -32 -18 -28 -3
-33 0 -33 18 0 18 5 21 33 18 20 -2 32 -8 32 -18z m-4 -41 c28 -14 7 -39 -32
-39 -24 0 -29 4 -29 25 0 28 25 34 61 14z"/>
<path d="M2060 281 c0 -34 4 -61 10 -61 6 0 10 9 10 19 0 15 8 21 31 23 71 7
63 71 -10 76 l-41 3 0 -60z m75 19 c0 -20 -6 -26 -27 -28 -25 -3 -28 0 -28 28
0 28 3 31 28 28 21 -2 27 -8 27 -28z"/>
<path d="M5970 315 c-8 -10 -9 -15 -1 -15 6 0 11 -17 11 -40 0 -35 3 -40 23
-40 20 1 20 2 5 11 -11 6 -18 22 -18 39 0 22 5 30 18 31 13 0 14 2 2 6 -8 3
-18 10 -21 15 -3 5 -12 2 -19 -7z"/>
<path d="M1572 273 c-2 -37 1 -43 21 -47 57 -11 63 -7 66 40 1 25 -2 44 -9 44
-5 0 -10 -16 -10 -35 0 -63 -55 -56 -63 8 -3 27 -4 25 -5 -10z"/>
<path d="M1711 268 c-1 -27 3 -48 7 -48 4 0 6 17 4 38 -5 58 -10 62 -11 10z"/>
<path d="M2200 264 c0 -24 5 -44 10 -44 6 0 10 14 10 31 0 18 7 37 17 44 15
11 14 13 -10 13 -25 0 -27 -3 -27 -44z"/>
<path d="M2294 284 c-9 -34 6 -58 38 -62 31 -4 50 19 46 55 -3 24 -8 28 -40
31 -33 3 -38 0 -44 -24z m70 -6 c8 -14 7 -21 -6 -34 -30 -30 -75 9 -48 42 16
18 39 15 54 -8z"/>
<path d="M2432 298 c-29 -29 7 -86 47 -73 16 5 21 2 21 -10 0 -14 -7 -16 -35
-13 -36 4 -47 -5 -19 -16 47 -18 74 9 74 73 l0 47 -38 2 c-20 2 -43 -3 -50
-10z m63 -28 c0 -18 -6 -26 -23 -28 -24 -4 -38 18 -28 44 3 9 15 14 28 12 17
-2 23 -10 23 -28z"/>
<path d="M2570 264 c0 -24 5 -44 10 -44 6 0 10 16 10 35 0 21 6 37 17 43 13 8
11 10 -10 10 -25 0 -27 -4 -27 -44z"/>
<path d="M2693 303 c15 -2 27 -10 27 -18 0 -8 -12 -15 -27 -17 -20 -2 -28 -9
-28 -23 0 -16 8 -21 38 -23 35 -3 37 -2 37 27 0 49 -9 61 -44 60 -30 -2 -30
-2 -3 -6z m27 -52 c0 -6 -5 -13 -10 -16 -15 -9 -43 3 -35 15 8 13 45 13 45 1z"/>
<path d="M2790 265 c0 -54 18 -60 22 -7 2 29 7 37 23 37 16 0 21 -8 23 -37 4
-48 22 -50 22 -3 0 23 6 38 16 42 20 8 34 -8 44 -49 8 -31 9 -31 7 12 l-2 45
-77 3 -78 2 0 -45z"/>
<path d="M3000 265 c0 -25 5 -45 10 -45 6 0 10 16 10 35 0 63 48 60 53 -3 3
-44 15 -40 19 6 2 29 7 38 25 40 17 2 24 -3 27 -20 13 -58 14 -60 13 -18 l-2
45 -77 2 -78 3 0 -45z"/>
<path d="M3210 265 c0 -25 5 -45 10 -45 6 0 10 20 10 45 0 25 -4 45 -10 45 -5
0 -10 -20 -10 -45z"/>
<path d="M3280 266 c0 -55 17 -62 22 -8 2 29 7 38 25 40 17 2 24 -3 27 -20 13
-58 14 -60 13 -18 l-2 45 -42 3 -43 3 0 -45z"/>
<path d="M3432 298 c-33 -33 4 -87 50 -73 15 5 19 3 16 -6 -3 -8 -20 -17 -39
-20 l-34 -5 29 -9 c40 -11 66 21 66 79 0 42 0 43 -38 44 -21 1 -44 -4 -50 -10z
m63 -28 c0 -20 -6 -26 -26 -28 -30 -4 -46 22 -28 45 20 23 54 12 54 -17z"/>
<path d="M3712 298 c-28 -28 -7 -78 34 -78 29 0 46 23 42 57 -2 23 -8 29 -33
31 -17 2 -36 -3 -43 -10z m66 -30 c2 -19 -2 -28 -18 -33 -37 -12 -64 27 -38
53 21 21 53 10 56 -20z"/>
<path d="M3838 285 c-16 -35 13 -68 54 -60 23 6 27 4 22 -10 -5 -12 -16 -16
-40 -13 -19 2 -34 0 -34 -4 0 -14 48 -20 69 -8 17 9 21 20 21 63 l0 53 -40 2
c-34 2 -42 -1 -52 -23z m71 1 c17 -20 2 -46 -25 -46 -26 0 -40 20 -30 45 7 19
40 20 55 1z"/>
<path d="M3987 303 c-11 -10 -8 -71 3 -78 6 -4 10 12 10 39 0 47 -2 51 -13 39z"/>
<path d="M4057 303 c-11 -11 -8 -58 5 -71 14 -14 54 -16 63 -3 3 6 -6 9 -21 8
-30 -2 -50 22 -40 48 5 13 13 16 37 11 18 -3 28 -2 24 4 -7 11 -58 14 -68 3z"/>
<path d="M4386 273 c9 -21 18 -44 21 -50 3 -7 -5 -17 -18 -21 -15 -6 -18 -11
-11 -16 7 -4 17 -4 23 0 14 8 62 115 55 122 -3 3 -13 -12 -23 -34 l-16 -39
-16 37 c-9 21 -19 38 -24 38 -4 0 0 -17 9 -37z"/>
<path d="M4701 292 c-23 -43 27 -91 68 -65 20 13 26 50 11 69 -18 20 -67 18
-79 -4z m68 -6 c22 -26 -10 -63 -44 -50 -15 6 -21 45 -8 57 11 12 40 8 52 -7z"/>
<path d="M4909 268 c9 -23 22 -43 27 -45 6 -2 18 13 27 32 24 51 20 67 -5 20
l-22 -40 -14 38 c-8 20 -18 37 -23 37 -4 0 0 -19 10 -42z"/>
<path d="M5033 265 c0 -27 2 -38 4 -22 2 15 2 37 0 50 -2 12 -4 0 -4 -28z"/>
<path d="M5099 301 c-7 -39 -6 -81 1 -81 5 0 10 17 12 38 3 32 6 37 28 37 21
0 26 -6 31 -40 l7 -40 -2 45 c-1 45 -1 45 -38 46 -21 1 -38 -2 -39 -5z"/>
<path d="M5242 298 c-30 -30 3 -84 45 -73 18 4 24 2 21 -7 -3 -7 -19 -13 -36
-13 -34 0 -42 -9 -16 -19 48 -18 74 8 74 75 l0 49 -38 0 c-21 0 -43 -5 -50
-12z m63 -28 c0 -20 -6 -26 -26 -28 -30 -4 -46 22 -28 45 20 23 54 12 54 -17z"/>
<path d="M5452 298 c-17 -17 -15 -53 3 -68 8 -7 26 -10 40 -8 19 4 25 1 25
-13 0 -10 5 -21 10 -24 6 -4 10 18 10 59 l0 66 -38 0 c-21 0 -43 -5 -50 -12z
m66 -27 c6 -37 -26 -52 -52 -25 -12 12 -13 20 -5 35 15 28 53 21 57 -10z"/>
<path d="M5590 276 c0 -41 16 -56 58 -53 31 2 32 4 32 45 0 52 -18 56 -22 5
-2 -30 -7 -38 -23 -38 -16 0 -21 8 -23 38 -4 46 -22 49 -22 3z"/>
<path d="M5731 288 c-9 -25 -4 -49 13 -60 17 -12 54 -9 62 4 5 8 2 9 -11 4
-21 -8 -55 1 -55 15 0 5 18 9 40 9 43 0 45 2 30 31 -16 28 -68 26 -79 -3z m67
-5 c2 -9 -7 -13 -27 -13 -30 0 -39 9 -24 24 11 10 46 3 51 -11z"/>
<path d="M5857 296 c-7 -17 11 -36 35 -36 10 0 18 -7 18 -16 0 -13 -7 -15 -32
-10 -24 5 -29 3 -21 -5 6 -6 23 -9 39 -7 37 4 41 39 5 48 -35 8 -37 28 -4 33
28 4 28 4 -3 6 -19 0 -34 -5 -37 -13z"/>
<path d="M6073 265 c0 -27 2 -38 4 -22 2 15 2 37 0 50 -2 12 -4 0 -4 -28z"/>
<path d="M6134 284 c-9 -34 6 -58 38 -62 31 -4 50 19 46 55 -3 24 -8 28 -40
31 -33 3 -38 0 -44 -24z m70 -6 c8 -14 7 -21 -6 -34 -30 -30 -75 9 -48 42 16
18 39 15 54 -8z"/>
<path d="M6272 263 c1 -36 2 -40 5 -16 8 64 63 71 63 8 0 -19 5 -35 10 -35 11
0 14 49 4 74 -4 11 -19 16 -45 16 l-39 0 2 -47z"/>
<path d="M6407 296 c-6 -15 6 -29 36 -39 30 -11 20 -30 -13 -23 -17 3 -30 1
-30 -4 0 -12 50 -13 69 -1 19 12 7 39 -20 43 -33 5 -35 26 -2 31 28 4 28 4 -3
6 -20 0 -34 -5 -37 -13z"/>
</g>
</svg>
